<?xml version="1.0" encoding="UTF-8" standalone="no"?>
<!-- Created with Inkscape (http://www.inkscape.org/) -->

<svg
   xmlns:dc="http://purl.org/dc/elements/1.1/"
   xmlns:cc="http://creativecommons.org/ns#"
   xmlns:rdf="http://www.w3.org/1999/02/22-rdf-syntax-ns#"
   xmlns:svg="http://www.w3.org/2000/svg"
   xmlns="http://www.w3.org/2000/svg"
   xmlns:sodipodi="http://sodipodi.sourceforge.net/DTD/sodipodi-0.dtd"
   xmlns:inkscape="http://www.inkscape.org/namespaces/inkscape"
   version="1.1"
   id="svg3751"
   xml:space="preserve"
   width="886.66669"
   height="1013.3333"
   viewBox="0 0 886.66669 1013.3333"
   sodipodi:docname="Jaeger_Logo_Final_BLACK.svg"
   inkscape:version="0.92.3 (2405546, 2018-03-11)"><metadata
     id="metadata3757"><rdf:RDF><cc:Work
         rdf:about=""><dc:format>image/svg+xml</dc:format><dc:type
           rdf:resource="http://purl.org/dc/dcmitype/StillImage" /><dc:title /></cc:Work></rdf:RDF></metadata><defs
     id="defs3755" /><sodipodi:namedview
     pagecolor="#ffffff"
     bordercolor="#666666"
     borderopacity="1"
     objecttolerance="10"
     gridtolerance="10"
     guidetolerance="10"
     inkscape:pageopacity="0"
     inkscape:pageshadow="2"
     inkscape:window-width="1920"
     inkscape:window-height="1016"
     id="namedview3753"
     showgrid="false"
     inkscape:zoom="0.81217107"
     inkscape:cx="443.33334"
     inkscape:cy="506.66666"
     inkscape:window-x="0"
     inkscape:window-y="27"
     inkscape:window-maximized="1"
     inkscape:current-layer="g3759" /><g
     id="g3759"
     inkscape:groupmode="layer"
     inkscape:label="ink_ext_XXXXXX"
     transform="matrix(1.3333333,0,0,-1.3333333,0,1013.3333)"><g
       id="g3761"
       transform="matrix(0.11469418,0,0,0.11469418,-47.63357,-55.952694)"><path
         d="m 1215.09,1594.27 c 124.31,0 213.81,64 278.13,149.47 3.72,4.95 7.39,9.93 10.94,15.01 -43.74,101.45 -104.15,243.95 -170.06,406.22 -46.13,113.57 -94.93,236.75 -142.7,362.67 -31.42,-26.73 -67.71,-67.07 -106.97,-127.93 -43.02,-66.68 -82.68,-172.3 -104.989,-285.52 -20.078,-101.91 -26.011,-209.93 -7.707,-301.33 7.575,-37.79 19.219,-72.79 35.826,-103.27 42.27,-77.61 110.17,-115.32 207.53,-115.32"
         style="fill:#211c1d;fill-opacity:1;fill-rule:nonzero;stroke:none"
         id="path3763"
         inkscape:connector-curvature="0" /><path
         d="m 1859.4,3580.25 c -97.68,0 -176.87,-79.19 -176.87,-176.87 0,-97.68 79.19,-176.87 176.87,-176.87 97.68,0 176.87,79.19 176.87,176.87 0,97.68 -79.19,176.87 -176.87,176.87"
         style="fill:#211c1d;fill-opacity:1;fill-rule:nonzero;stroke:none"
         id="path3765"
         inkscape:connector-curvature="0" /><path
         d="m 3572.52,3994.63 c -97.68,0 -176.87,-79.18 -176.87,-176.87 0,-97.68 79.19,-176.87 176.87,-176.87 97.68,0 176.87,79.19 176.87,176.87 0,97.69 -79.19,176.87 -176.87,176.87"
         style="fill:#211c1d;fill-opacity:1;fill-rule:nonzero;stroke:none"
         id="path3767"
         inkscape:connector-curvature="0" /><path
         d="m 591.883,1962.83 c 0,-46.99 102.504,-91.43 284.562,-130.98 -12.965,94.3 -4.953,189.41 7.196,263.5 -186.555,-39.93 -291.758,-84.91 -291.758,-132.52"
         style="fill:#211c1d;fill-opacity:1;fill-rule:nonzero;stroke:none"
         id="path3769"
         inkscape:connector-curvature="0" /><path
         d="m 5964.08,2084.6 c -2.76,-7.64 -5.7,-15.18 -8.86,-22.58 -22.39,-52.37 -54.52,-98.62 -95.49,-137.43 -82.24,-77.89 -154.33,-124.56 -218.74,-141.58 355.8,50.01 567.01,112.29 567.01,179.82 0,43.38 -87.36,84.58 -243.92,121.77"
         style="fill:#211c1d;fill-opacity:1;fill-rule:nonzero;stroke:none"
         id="path3771"
         inkscape:connector-curvature="0" /><path
         d="m 5867.84,2105.33 c 49.31,115.39 31.74,254.19 -10.09,362.45 -77.09,199.46 -241.03,341.05 -398.66,344.34 l -5.64,0.49 c -0.25,0.04 -30.54,4.56 -71.24,4.56 -85.85,0 -191.23,-18.33 -205.79,-105.59 -10.09,-60.56 16.39,-91.57 72.41,-150.5 64.02,-67.31 151.67,-159.52 177.93,-352.09 1.89,-13.84 3.87,-27.26 5.95,-40.24 30.97,-193.89 82.74,-292.13 154.06,-292.15 h 0.02 c 35.53,0 100.35,21.31 207.49,122.79 33.08,31.35 57.06,67.34 73.56,105.94"
         style="fill:#211c1d;fill-opacity:1;fill-rule:nonzero;stroke:none"
         id="path3773"
         inkscape:connector-curvature="0" /><path
         d="m 1319.96,5349.01 c -5.39,146.28 -8.4,291.41 -1.83,334.15 19.53,88.2 563.36,710.41 921.29,783.46 29.13,5.94 64.37,8.96 104.71,8.96 403.84,0 1178.2,-288.45 1272.12,-338.52 4.86,-11.68 11.83,-34.68 20.3,-66.16 -43.9,-46.09 -79.66,-115.65 -97.71,-197.75 -18.41,-83.75 -15.44,-161.39 4.81,-220.88 -407.61,-177.72 -1423.6,-561.84 -2186.44,-355.96 16.08,-24.33 32,-50.29 47.77,-77.98 57.28,-100.62 99.19,-200.01 122,-258.68 315.83,-49.4 1011.69,-60.22 2104.7,431.73 20.82,65.34 52.8,157.53 95.32,256.75 -20,-18.65 -40.04,-27.41 -56.58,-23.78 -44.25,9.73 -74.02,110.31 -47.64,230.35 24.98,113.61 88.71,189.92 132.57,189.92 2.51,0 4.91,-0.26 7.31,-0.79 42.66,-9.38 71.7,-103.23 50.13,-217.5 143.39,263.47 304.56,396.92 479.85,396.92 59.07,0 110.93,-13.93 154.42,-40.82 73.94,89.93 120.99,151.95 120.99,151.95 -55.59,-10.1 -171.82,-25.27 -171.82,-25.27 439.65,161.72 404.28,601.37 404.28,601.37 0,-75.8 -227.41,-257.73 -227.41,-257.73 10.11,65.7 -25.27,151.6 -25.27,151.6 10.11,-85.9 -262.77,-308.26 -262.77,-308.26 20.21,40.43 5.05,111.18 5.05,111.18 -15.16,-80.86 -136.44,-111.18 -136.44,-111.18 75.8,90.96 217.29,571.04 111.17,601.36 -106.12,30.32 -252.67,-313.31 -252.67,-313.31 -5.05,80.86 -50.53,80.86 -50.53,80.86 20.21,-252.68 -181.93,-454.82 -181.93,-454.82 -15.16,50.54 -96.02,75.81 -96.02,75.81 18.81,-40.73 8.47,-186.32 -2.11,-291.11 -1.08,1.31 -2.03,2.29 -2.86,3.13 -42.88,42.86 -907.7,363.52 -1334.59,363.52 -46.1,0 -87.11,-3.6 -121.89,-10.7 -224.68,-45.85 -492.61,-277.76 -632.32,-411.91 -166.47,-159.83 -345.39,-368.98 -356.67,-442.32 -5.96,-38.77 -5.56,-137.09 -2.66,-246.26 30.25,-28.2 60.04,-62.2 89.37,-101.33"
         style="fill:#211c1d;fill-opacity:1;fill-rule:nonzero;stroke:none"
         id="path3775"
         inkscape:connector-curvature="0" /><path
         d="m 3648.32,3443.81 c -309.79,0 -560.93,251.13 -560.93,560.93 0,309.8 251.14,560.93 560.93,560.93 309.8,0 560.94,-251.13 560.94,-560.93 0,-309.8 -251.14,-560.93 -560.94,-560.93 z m -118.75,-603.89 c -118.76,-53.06 -455.42,-14.24 -558.41,-27.79 -192.03,-25.27 -336.06,-141.5 -432.07,-194.56 -96.02,-53.06 -298.15,0 -277.94,151.61 20.21,151.6 260.25,222.34 260.25,222.34 42.96,-53.06 149.08,-101.06 399.23,-60.63 250.14,40.42 341.1,255.19 341.1,255.19 298.16,-2.52 370.61,-106.25 379.01,-156.65 7.58,-45.48 7.58,-136.45 -111.17,-189.51 z m -490.19,-379.01 c -54.24,20.34 -83.95,169.79 -94.88,238.47 13.91,3.14 28.05,5.77 42.47,7.67 7.09,0.93 22.19,2.04 53.95,2.04 29.01,0 64.19,-0.9 101.44,-1.87 10.69,-0.27 21.74,-0.56 33.03,-0.83 2.92,-25.48 6.48,-62.48 10.54,-116.61 11.37,-151.61 -114.56,-140.86 -146.55,-128.87 z m -192.03,-48.01 c -118.18,-35.2 -160.74,100.72 -173.45,159.65 55.71,34.9 120.33,75.07 193.3,103.13 22.82,-61.1 77.59,-233.75 -19.85,-262.78 z M 1349,3600.47 c 0,309.79 251.14,560.93 560.93,560.93 309.8,0 560.94,-251.14 560.94,-560.93 0,-309.8 -251.14,-560.94 -560.94,-560.94 -309.79,0 -560.93,251.14 -560.93,560.94 z m -17.95,1015.69 -2.6,-0.06 c -24.28,0 -45.07,17.49 -49.45,41.59 -3.27,17.95 3.71,31.43 8.17,37.86 4.46,6.44 14.61,17.73 32.56,20.99 5.15,0.94 8.55,1.55 16.59,1.55 36.5,0 157.2,-14.46 488.97,-148.44 276.85,-111.8 417.25,-135.26 486.28,-135.26 l 31.57,0.44 24.44,12.03 c 6.92,3.4 14.71,5.19 22.52,5.19 8.29,0 20.61,-2.02 32.23,-11.67 14.05,-11.67 17.35,-26.48 18.08,-34.27 0.73,-7.8 0.19,-22.97 -11.46,-37.01 -7.43,-8.95 -30.08,-36.23 -116.34,-36.23 -113.69,0 -290.4,48.09 -525.23,142.92 -285.49,115.29 -401.5,136.26 -438.13,139.93 l -9.08,0.9 z m -91.07,296.64 c -12.84,16.68 -30.47,40.69 -50.82,69.33 -20.37,28.62 -43.55,61.94 -68.62,96.04 -12.57,16.98 -25.85,33.98 -39.39,50.13 -13.71,15.78 -28.01,31.33 -41.83,41.36 -6.64,5.03 -12.97,8.38 -17.1,9.93 -0.87,0.09 -1.58,0.14 -2.33,0.48 l -0.54,0.3 c 0.22,-0.07 0.45,-0.11 0.45,-0.11 0,0 1.22,0.09 1.68,0.35 0.11,0.1 1.68,0.97 0.45,0.79 l -4.27,-0.87 -2.63,-0.52 c -3.52,-1.26 -5.51,-2.08 -7.94,-4.55 -2.51,-2.76 -5.1,-8.21 -7.07,-15.23 -3.95,-14.16 -3.957,-33.43 -2.946,-51.43 1.231,-18.32 3.726,-36.42 6.446,-53.26 5.54,-33.76 11.62,-62.76 15.6,-83.3 4.21,-20.49 6.46,-32.61 6.46,-32.61 0,0 -2.22,2.14 -6.04,6.42 -3.69,4.34 -9.53,10.53 -15.86,19.06 -13.129,16.83 -30.707,41.76 -47.27,74.99 -8.219,16.66 -16.258,35.37 -22.668,56.74 -5.847,21.61 -11.652,45.33 -8.844,74.91 1.368,14.66 5.215,31.19 15.067,47.58 9.601,16.51 26.531,30.73 43.808,37.82 l 3.262,1.47 1.641,0.72 5.562,1.64 4.203,1.14 4.209,1.13 c 1.61,0.41 6.14,0.92 9.15,1.18 3.37,0.29 6.79,0.44 10.18,0.46 l 5.07,-0.07 3.76,-0.51 c 4.98,-0.77 10.05,-1.7 14.89,-2.86 18.27,-5.5 32.51,-14.02 44.85,-22.82 23.81,-18.31 40.94,-38.3 56.02,-58.64 15.11,-20.2 27.45,-40.92 38.45,-61.17 21.76,-40.61 37.41,-79.94 48.66,-114.34 11.31,-34.37 18.1,-63.84 21.93,-84.76 2.2,-10.33 3.07,-18.78 3.97,-24.4 0.64,-5.71 0.99,-8.75 0.99,-8.75 0,0 -7.91,9.46 -20.59,26.23 z M 2816.19,3381.34 c 164.3,27.28 309.92,-25.57 325.27,-118.03 15.36,-92.47 -105.38,-189.54 -269.67,-216.81 -164.29,-27.28 -309.92,25.57 -325.27,118.03 -15.35,92.46 105.38,189.53 269.67,216.81 z m 16.62,1221.98 c 8.27,5.26 17.36,7.93 27.03,7.93 11.88,0 23.42,-4.12 32.43,-11.59 l 48.96,-40.56 61.22,17.2 c 13.05,3.66 26.98,8.82 41.43,15.31 l 2.53,1.15 2.47,1.25 c 120.51,61 456.41,446.73 575.68,590.21 9.65,11.61 23.87,18.27 39.01,18.27 8.31,0 20.64,-2.03 32.26,-11.7 21.47,-17.83 24.41,-49.8 6.57,-71.27 -276.23,-332.4 -518.41,-575.86 -616.98,-620.21 -45.95,-20.69 -89.44,-31.18 -129.2,-31.18 -24.76,0 -47.93,4.06 -68.86,12.06 -45.51,17.41 -66.39,47.45 -70.1,53.29 -14.96,23.51 -8,54.86 15.55,69.84 z m 1179.27,982.69 c 0.25,6.23 0.17,15.53 1.36,27.11 1.82,23.32 6.22,56.47 16.58,95.5 10.57,38.91 26.54,84.02 54.97,129.27 14.31,22.49 31.94,45.19 55.45,64.98 23.16,19.86 53.56,36.54 88.03,42.62 8.55,1.22 17.31,1.8 25.92,2.11 8.54,-0.54 17.31,-0.5 25.58,-1.96 8.14,-1.69 16.75,-2.66 24.3,-5.47 l 11.47,-3.93 5.69,-2.01 0.7,-0.25 0.36,-0.13 4.01,-1.74 1.05,-0.56 2.11,-1.13 c 1.6,-0.13 22.14,-13.03 27.36,-21.38 l 5.54,-7.03 4.19,-7.31 c 2.93,-4.99 4.88,-9.83 6.43,-14.61 6.48,-19.3 6.91,-36.13 5.97,-51.26 -2.4,-29.89 -10.15,-54.54 -18.58,-76.89 -8.58,-22.28 -18.31,-42.05 -28.01,-59.74 -19.53,-35.32 -39.17,-62.24 -53.75,-80.48 -14.47,-18.3 -24.07,-27.78 -24.07,-27.78 0,0 3.03,13.13 8.76,35.4 5.52,22.34 13.88,53.87 22.63,90.92 4.34,18.5 8.69,38.44 12.09,59.01 3.52,20.45 5.77,42.05 4.71,60.76 -0.83,9.06 -2.52,17.25 -4.84,21.39 -0.46,1.07 -0.95,1.88 -1.47,2.21 0,0 -0.14,0.04 -0.2,0.07 -0.26,0.13 -0.4,0.38 -0.6,0.56 l 0.49,-0.23 c -0.13,0.18 -0.28,0.35 -0.37,0.55 l -0.58,0.11 c 0.12,-0.17 0.3,-0.28 0.3,-0.28 l -3.24,1.41 -10.76,2.91 c -4.57,1.48 -8.97,1.42 -13.4,2.51 -4.43,0.79 -8.69,0.31 -13.04,0.77 -4.26,-0.37 -8.47,-0.77 -12.7,-1.29 -16.76,-2.69 -33.58,-10.88 -50.04,-22.83 -16.32,-12.09 -31.8,-27.73 -45.89,-44.51 -28.13,-33.84 -51.34,-71.18 -70.77,-103.76 -19.28,-32.79 -34.93,-61.28 -46.09,-81.36 -11.17,-20.3 -17.56,-31.9 -17.56,-31.9 0,0 -0.19,3.37 -0.09,9.65 z M 5341.6,2197.38 c -22.52,165.08 -92.93,239.13 -155.05,304.48 -57.84,60.85 -112.49,118.33 -94.9,223.84 16.26,97.55 93.87,157.57 220.67,173.18 -77.01,520.55 -189.87,1177.28 -334.94,1737.54 -72.45,279.8 -187.02,474.15 -340.7,603.36 28.24,14.45 55.54,28.66 81.88,42.62 36.26,19.21 70.88,38 103.33,56.2 339.7,190.48 395.02,281.97 407.08,334.23 10.18,44.14 -4.18,74.16 -18.04,91.57 -31.86,40.05 -93.7,58.7 -194.64,58.7 -111.49,0 -262.3,-23.46 -419.89,-56.64 -1.44,-28.71 -3.96,-58.56 -7.75,-89.76 161.82,35.12 316.88,60.45 427.64,60.45 101.36,0 123.89,-21.87 127.38,-26.25 1.37,-1.72 4.56,-5.73 1.56,-18.75 -4.59,-19.86 -44.49,-98.65 -365.39,-278.58 -92.29,-51.75 -201.02,-108.04 -322.9,-167.39 l -1.44,-2 -2.3,0.19 c -141.75,-68.94 -301.23,-141.98 -474.24,-216.99 -102.58,-44.48 -204.83,-87.45 -304.69,-128.32 47.86,55.13 89.79,104.88 121.42,142.95 60.67,73.01 50.66,181.39 -22.34,242.06 -4.95,4.11 -10.08,7.83 -15.33,11.3 141.19,36.75 314.7,45.59 447.88,45.59 120.6,0 208.02,-7.16 208.02,-7.16 37.9,53.06 257.73,803.5 -121.28,803.5 -325.57,0 -539.28,-637.64 -593.06,-817.44 -60.52,12.94 -125.99,-7.21 -168.29,-58.12 -199.32,-239.79 -463.06,-522 -537.19,-559.52 -10.37,-4.68 -18.47,-7.48 -24.46,-9.16 -55.89,46.29 -137.4,53.64 -201.93,12.58 -56.08,-35.68 -84.34,-98.45 -78.84,-160.38 -22.13,-5.27 -40.17,-8.75 -53.21,-10.13 -28.48,-2.99 -71.64,-6.6 -126.07,-10.43 -3.16,3.06 -6.33,6.12 -9.77,8.98 -53.8,44.68 -126.8,51.01 -185.77,22 -32.11,-0.49 -149.93,7.94 -443.34,126.43 -288.49,116.5 -430.71,148.9 -503.7,155.72 59.18,26.21 98.22,41.16 98.22,41.16 0,0 -201.81,593.71 -474.171,593.64 -35.391,-0.01 -72.02,-10.05 -109.5,-32.71 C 555.609,5242.84 1010.42,4644 1010.42,4644 c 52.73,36.51 109.79,70.26 165.11,100.18 -16.34,-32.27 -22.83,-69.85 -15.86,-108.19 13.15,-72.32 69.51,-125.67 137.94,-138.21 -611.169,20.14 -719.141,102.16 -737.958,129.7 -4.484,6.57 -6.234,12.55 -1.91,23.64 22.848,58.55 116.442,120.35 236.242,176.87 -12.894,24.84 -25.566,50.88 -37.523,77.77 -132.191,-63.07 -245.926,-139.19 -278.785,-223.4 -14.184,-36.32 -10.363,-72.07 11.015,-103.37 20.512,-30.02 70.77,-103.44 447.473,-143.85 28.34,-3.04 58.547,-5.89 90.706,-8.53 -158.538,-328.19 -89.64,-692.21 -31.608,-992.91 62.828,-325.56 264.428,-857.64 427.908,-1258.9 76.26,-187.17 144.22,-345.89 185.92,-441.86 486.08,-42.83 1110.16,-68.58 1790.85,-68.58 804.85,0 1530.52,36 2042.51,93.67 -32.78,123.74 -83.21,340.11 -97.68,420.08 -1.39,7.72 -2.49,14.31 -3.17,19.27"
         style="fill:#211c1d;fill-opacity:1;fill-rule:nonzero;stroke:none"
         id="path3777"
         inkscape:connector-curvature="0" /><path
         d="m 991.105,5515.6 h -0.007 l 0.007,-42.97 z"
         style="fill:#211c1d;fill-opacity:1;fill-rule:nonzero;stroke:none"
         id="path3779"
         inkscape:connector-curvature="0" /><path
         d="m 4297.74,5853.36 -0.98,0.47 -0.45,0.2 c 0.07,-0.09 0.12,-0.2 0.2,-0.28 l 0.11,-0.12 0.66,-0.21 0.46,-0.06"
         style="fill:#211c1d;fill-opacity:1;fill-rule:nonzero;stroke:none"
         id="path3781"
         inkscape:connector-curvature="0" /><path
         d="M 1883.83,1142.57 C 1787.37,1120.52 1503.5,966.18 1258.21,919.332 1012.92,872.48 800.699,847.672 726.285,820.109 c -74.41,-27.558 -132.289,-82.679 13.781,-137.8 146.071,-55.118 854.384,-74.418 917.764,0 63.4,74.41 -43.71,106.66 -198.43,104.73 -110.24,-1.379 -96.72,37.031 -96.46,41.34 0,0 6.89,48.23 176.38,71.66 169.23,23.383 917.77,93.703 903.99,173.631 -13.78,79.92 -463.02,90.95 -559.48,68.9"
         style="fill:#211c1d;fill-opacity:1;fill-rule:nonzero;stroke:none"
         id="path3783"
         inkscape:connector-curvature="0" /><path
         d="m 1388.99,594.512 c -79.2,-17.231 -139.33,-49.891 -134.32,-72.942 5.02,-23.058 73.29,-27.769 152.49,-10.539 79.2,17.239 139.34,49.891 134.32,72.949 -5.02,23.051 -73.29,27.77 -152.49,10.532"
         style="fill:#211c1d;fill-opacity:1;fill-rule:nonzero;stroke:none"
         id="path3785"
         inkscape:connector-curvature="0" /><path
         d="m 1055.11,613.281 c -84.969,-6.769 -152.383,-30.699 -150.571,-53.461 1.813,-22.761 72.164,-35.73 157.131,-28.961 84.97,6.762 152.39,30.692 150.57,53.454 -1.81,22.757 -72.16,35.726 -157.13,28.968"
         style="fill:#211c1d;fill-opacity:1;fill-rule:nonzero;stroke:none"
         id="path3787"
         inkscape:connector-curvature="0" /><path
         d="m 782.551,637.91 c -56.559,-7.699 -100.449,-28.308 -98.039,-46.031 2.414,-17.719 50.218,-25.84 106.781,-18.137 56.555,7.699 100.449,28.309 98.031,46.039 -2.41,17.719 -50.219,25.84 -106.773,18.129"
         style="fill:#211c1d;fill-opacity:1;fill-rule:nonzero;stroke:none"
         id="path3789"
         inkscape:connector-curvature="0" /><path
         d="m 582.656,662.738 c -54.605,-7.918 -97.187,-25.949 -95.109,-40.258 2.078,-14.308 48.027,-19.488 102.633,-11.558 54.601,7.93 97.187,25.957 95.109,40.269 -2.078,14.309 -48.031,19.481 -102.633,11.547"
         style="fill:#211c1d;fill-opacity:1;fill-rule:nonzero;stroke:none"
         id="path3791"
         inkscape:connector-curvature="0" /><path
         d="m 544.703,667.422 c 54.606,7.93 97.188,25.957 95.11,40.258 -2.079,14.32 -48.028,19.492 -102.633,11.562 -54.606,-7.933 -97.188,-25.953 -95.11,-40.262 2.078,-14.308 48.028,-19.492 102.633,-11.558"
         style="fill:#211c1d;fill-opacity:1;fill-rule:nonzero;stroke:none"
         id="path3793"
         inkscape:connector-curvature="0" /><path
         d="m 532.328,734.691 c 47.469,6.899 84.485,22.571 82.68,35.008 -1.809,12.442 -41.75,16.942 -89.223,10.043 -47.469,-6.89 -84.484,-22.562 -82.68,-35 1.805,-12.441 41.75,-16.941 89.223,-10.051"
         style="fill:#211c1d;fill-opacity:1;fill-rule:nonzero;stroke:none"
         id="path3795"
         inkscape:connector-curvature="0" /><path
         d="m 3355.57,1065.4 c -168.12,-8.27 -548.46,11.02 -600.82,-77.17 -52.37,-88.191 154.34,-121.269 479.55,-93.71 325.22,27.562 785.48,63.39 804.77,162.61 19.29,99.22 -85.44,79.93 -96.46,143.32 -11.03,63.39 115.75,63.39 140.56,157.09 24.8,93.71 -170.88,82.68 -344.51,82.68 -173.63,0 -463.02,-16.53 -490.58,-107.48 -27.56,-90.95 132.29,-90.95 245.29,-113 113,-22.05 79.93,-63.39 79.93,-63.39 -5.51,-57.88 -49.61,-82.68 -217.73,-90.95"
         style="fill:#211c1d;fill-opacity:1;fill-rule:nonzero;stroke:none"
         id="path3797"
         inkscape:connector-curvature="0" /><path
         d="m 2905.99,871.102 c -80.49,0 -145.73,-21.293 -145.73,-47.543 0,-26.258 65.24,-47.547 145.73,-47.547 80.48,0 145.72,21.289 145.72,47.547 0,26.25 -65.24,47.543 -145.72,47.543"
         style="fill:#211c1d;fill-opacity:1;fill-rule:nonzero;stroke:none"
         id="path3799"
         inkscape:connector-curvature="0" /><path
         d="m 3281.15,877.301 c -53.65,0 -97.15,-19.442 -97.15,-43.41 0,-23.969 43.5,-43.411 97.15,-43.411 53.66,0 97.16,19.442 97.16,43.411 0,23.968 -43.5,43.41 -97.16,43.41"
         style="fill:#211c1d;fill-opacity:1;fill-rule:nonzero;stroke:none"
         id="path3801"
         inkscape:connector-curvature="0" /><path
         d="m 3583.98,900.039 c -58.79,0 -106.46,-15.738 -106.46,-35.141 0,-19.406 47.67,-35.136 106.46,-35.136 58.79,0 106.45,15.73 106.45,35.136 0,19.403 -47.66,35.141 -106.45,35.141"
         style="fill:#211c1d;fill-opacity:1;fill-rule:nonzero;stroke:none"
         id="path3803"
         inkscape:connector-curvature="0" /><path
         d="m 3817.55,941.379 c -42.81,0 -77.51,-16.66 -77.51,-37.207 0,-20.551 34.7,-37.211 77.51,-37.211 42.81,0 77.52,16.66 77.52,37.211 0,20.547 -34.71,37.207 -77.52,37.207"
         style="fill:#211c1d;fill-opacity:1;fill-rule:nonzero;stroke:none"
         id="path3805"
         inkscape:connector-curvature="0" /><path
         d="m 4019.09,982.719 c -43.38,0 -78.55,-16.199 -78.55,-36.168 0,-19.981 35.17,-36.18 78.55,-36.18 43.38,0 78.55,16.199 78.55,36.18 0,19.969 -35.17,36.168 -78.55,36.168"
         style="fill:#211c1d;fill-opacity:1;fill-rule:nonzero;stroke:none"
         id="path3807"
         inkscape:connector-curvature="0" /></g></g></svg>