<?xml version="1.0" encoding="UTF-8" standalone="no"?>
<!-- Created with Inkscape (http://www.inkscape.org/) -->

<svg
   xmlns:dc="http://purl.org/dc/elements/1.1/"
   xmlns:cc="http://creativecommons.org/ns#"
   xmlns:rdf="http://www.w3.org/1999/02/22-rdf-syntax-ns#"
   xmlns:svg="http://www.w3.org/2000/svg"
   xmlns="http://www.w3.org/2000/svg"
   xmlns:sodipodi="http://sodipodi.sourceforge.net/DTD/sodipodi-0.dtd"
   xmlns:inkscape="http://www.inkscape.org/namespaces/inkscape"
   version="1.1"
   id="svg4047"
   xml:space="preserve"
   width="886.66669"
   height="1013.3333"
   viewBox="0 0 886.66669 1013.3333"
   sodipodi:docname="Jaeger_Logo_Final_WHITE.svg"
   inkscape:version="0.92.3 (2405546, 2018-03-11)"><metadata
     id="metadata4053"><rdf:RDF><cc:Work
         rdf:about=""><dc:format>image/svg+xml</dc:format><dc:type
           rdf:resource="http://purl.org/dc/dcmitype/StillImage" /><dc:title /></cc:Work></rdf:RDF></metadata><defs
     id="defs4051" /><sodipodi:namedview
     pagecolor="#ffffff"
     bordercolor="#666666"
     borderopacity="1"
     objecttolerance="10"
     gridtolerance="10"
     guidetolerance="10"
     inkscape:pageopacity="0"
     inkscape:pageshadow="2"
     inkscape:window-width="1920"
     inkscape:window-height="1016"
     id="namedview4049"
     showgrid="false"
     inkscape:zoom="0.7458069"
     inkscape:cx="459.43502"
     inkscape:cy="487.34462"
     inkscape:window-x="0"
     inkscape:window-y="27"
     inkscape:window-maximized="1"
     inkscape:current-layer="g4055" /><g
     id="g4055"
     inkscape:groupmode="layer"
     inkscape:label="ink_ext_XXXXXX"
     transform="matrix(1.3333333,0,0,-1.3333333,0,1013.3333)"><g
       id="g4057"
       transform="matrix(0.11070631,0,0,0.11070631,-36.267636,-39.918129)"><path
         d="m 3658.55,3311.63 c -385.76,0 -699.57,313.84 -699.57,699.6 0,385.74 313.81,699.58 699.57,699.58 385.77,0 699.58,-313.84 699.58,-699.58 0,-385.76 -313.81,-699.6 -699.58,-699.6 z m -2493.02,282.52 c 0,385.75 313.81,699.58 699.58,699.58 385.77,0 699.58,-313.83 699.58,-699.58 0,-385.76 -313.81,-699.59 -699.58,-699.59 -385.77,0 -699.58,313.83 -699.58,699.59 z m 48.69,1090.69 c -3.39,18.53 3.83,32.43 8.42,39.07 4.59,6.64 15.06,18.28 33.59,21.64 3.97,0.74 6.97,1.27 11.7,1.49 1.56,0.09 3.36,0.12 5.42,0.12 4.7,0 10.77,-0.23 18.46,-0.91 5.74,-0.51 12.42,-1.27 20.08,-2.37 12.79,-1.83 28.43,-4.6 47.35,-8.73 11.38,-2.47 23.95,-5.44 37.79,-8.98 10.58,-2.7 21.96,-5.78 34.06,-9.19 7.55,-2.12 15.42,-4.39 23.58,-6.81 9.25,-2.74 18.9,-5.68 29.01,-8.83 8.52,-2.66 17.41,-5.49 26.58,-8.47 4.41,-1.42 8.89,-2.9 13.44,-4.4 9.25,-3.06 18.78,-6.27 28.64,-9.64 20.09,-6.88 41.51,-14.44 64.33,-22.75 10.62,-3.86 21.57,-7.91 32.8,-12.11 6.72,-2.5 13.55,-5.07 20.48,-7.7 33.34,-12.63 69.14,-26.62 107.86,-42.25 10.76,-4.35 20.95,-8.33 31.31,-12.43 13.37,-5.26 26.44,-10.34 39.12,-15.2 20.55,-7.86 40.28,-15.2 59.2,-22.04 10.69,-3.87 21.17,-7.59 31.36,-11.15 77.69,-27.11 141.01,-45.48 192.3,-57.53 4.33,-1.02 8.6,-2.01 12.79,-2.94 23.87,-5.34 45.07,-9.3 63.78,-12.1 1.96,-0.3 3.91,-0.6 5.82,-0.87 26.95,-3.82 48.69,-5.29 65.99,-5.29 l 32.58,0.46 25.21,12.41 c 7.12,3.5 15.18,5.36 23.23,5.36 4.26,0 9.57,-0.52 15.31,-2.28 5.75,-1.77 11.92,-4.78 17.92,-9.77 3.65,-3 6.57,-6.22 8.92,-9.47 3.25,-4.42 5.35,-8.9 6.87,-13.06 0.28,-0.84 0.57,-1.67 0.79,-2.49 1.23,-4 1.81,-7.6 2.09,-10.34 0.18,-2 0.29,-4.48 0.15,-7.31 -0.15,-2.83 -0.51,-5.99 -1.3,-9.36 -0.76,-3.36 -1.95,-6.93 -3.65,-10.55 -1.73,-3.64 -4.01,-7.33 -7.04,-10.95 -0.94,-1.15 -2.17,-2.61 -3.69,-4.26 -1.55,-1.65 -3.47,-3.51 -5.78,-5.48 -1.15,-0.98 -2.45,-2 -3.83,-3.03 -4.18,-3.07 -9.49,-6.31 -16.21,-9.38 -8.96,-4.1 -20.48,-7.9 -35.29,-10.68 -7.41,-1.39 -15.64,-2.53 -24.82,-3.31 -9.17,-0.8 -19.25,-1.23 -30.37,-1.23 -29.33,0 -62.75,3.09 -100.09,9.27 -37.39,6.19 -78.75,15.44 -124,27.76 -45.26,12.32 -94.42,27.69 -147.41,46.1 -52.99,18.4 -109.84,39.85 -170.38,64.3 -73.65,29.74 -136.35,53.4 -189.56,72.21 -6.65,2.35 -13.18,4.63 -19.54,6.83 -146.29,50.67 -215.75,62.61 -242.91,65.33 l -0.83,0.08 -8.53,0.85 -9.42,-0.48 -2.68,-0.07 c -25.06,0 -46.48,18.05 -51,42.91 z m -40.27,263.19 c -13.26,17.22 -31.43,41.98 -52.41,71.53 -21.02,29.52 -44.94,63.9 -70.8,99.07 -12.97,17.53 -26.66,35.07 -40.67,51.73 -5.35,6.15 -10.765,12.18 -16.254,17.98 -5.343,5.69 -10.765,11.16 -16.109,15.94 -3.613,3.22 -7.227,6.15 -10.766,8.74 -3.429,2.59 -6.789,4.76 -9.785,6.47 -3.035,1.71 -5.746,2.98 -7.84,3.77 -0.937,0.1 -1.664,0.15 -2.421,0.51 l -0.54,0.3 c 0.215,-0.08 0.43,-0.11 0.43,-0.11 0.762,-0.03 1.266,0.1 1.738,0.36 0,0 0.504,0.3 0.754,0.51 0.149,0.11 0.219,0.21 0.219,0.21 -0.035,0.12 -0.18,0.14 -0.504,0.09 l -4.406,-0.88 -2.711,-0.55 c -3.613,-1.3 -5.672,-2.14 -8.199,-4.7 -2.567,-2.83 -5.238,-8.46 -7.262,-15.71 -4.078,-14.59 -4.117,-34.48 -3.031,-53.05 1.226,-18.9 3.828,-37.57 6.644,-54.95 5.707,-34.82 11.957,-64.75 16.075,-85.94 2.168,-10.57 3.828,-18.98 4.949,-24.74 0.289,-1.45 0.539,-2.72 0.758,-3.83 0.613,-3.32 0.972,-5.07 0.972,-5.07 0,0 -2.308,2.21 -6.246,6.63 -3.793,4.47 -9.824,10.86 -16.363,19.66 -10.149,13.02 -22.899,30.75 -35.832,53.26 -4.332,7.49 -8.668,15.53 -12.93,24.11 -2.746,5.59 -5.492,11.49 -8.129,17.55 -5.527,12.57 -10.801,26.1 -15.277,40.97 -5.996,22.3 -11.992,46.77 -9.102,77.29 1.047,11.35 3.539,23.77 9.028,36.41 1.808,4.22 3.976,8.45 6.504,12.68 9.894,17.03 27.379,31.7 45.222,39.02 l 3.36,1.51 1.699,0.75 5.703,1.68 4.336,1.18 4.336,1.17 c 1.66,0.43 6.355,0.94 9.461,1.21 3.469,0.3 7.008,0.46 10.512,0.48 l 5.238,-0.07 3.863,-0.53 c 5.133,-0.8 10.367,-1.76 15.352,-2.95 14.16,-4.25 25.933,-10.27 36.334,-16.83 3.47,-2.19 6.76,-4.44 9.94,-6.71 5.16,-3.97 9.86,-8.06 14.48,-12.18 6.32,-5.66 12.35,-11.41 17.81,-17.29 9.43,-10.14 17.73,-20.54 25.5,-31.03 15.6,-20.83 28.32,-42.22 39.69,-63.11 11.2,-20.94 20.85,-41.56 29.15,-61.37 5.24,-12.47 9.72,-24.46 13.91,-36.18 2.49,-6.9 4.99,-13.82 7.12,-20.4 2.92,-8.87 5.56,-17.42 7.91,-25.59 7.08,-24.52 11.77,-45.68 14.73,-61.86 1.63,-7.66 2.53,-14.27 3.25,-19.56 0.08,-0.5 0.15,-0.97 0.22,-1.44 0.22,-1.49 0.44,-2.93 0.62,-4.17 0.65,-5.89 1.01,-9.03 1.01,-9.03 0,0 -8.17,9.76 -21.24,27.06 z M 3587.39,2747.49 c -56.76,-25.36 -140.37,-36.18 -279.58,-36.18 -2.32,0 -4.67,0.04 -7,0.04 2.83,-27.46 5.7,-60.4 8.55,-98.44 0.5,-6.69 0.79,-13.51 0.89,-20.83 1.01,-78.87 -28.78,-125.81 -53.95,-151.3 -34.08,-34.52 -82.64,-53.54 -136.73,-53.54 -25.08,0 -50.78,4.25 -70.5,11.64 -16.38,6.15 -30.59,15.51 -43.08,26.91 -26.04,-49.45 -68.5,-69.01 -93.61,-76.49 -20.58,-6.13 -41.09,-9.24 -60.95,-9.24 -101.12,0 -177.73,74.94 -212.79,206.61 -9.93,-5.99 -19.66,-11.72 -29.07,-16.92 -36.1,-19.95 -80.45,-30.5 -128.23,-30.5 -88.29,0 -171.35,34.67 -222.19,92.74 -42.24,48.25 -59.95,108.45 -51.19,174.08 26.31,197.37 308.14,298 340.18,308.82 l 51.61,17.43 c -1.7,5 -3.05,10.12 -3.92,15.39 -0.55,3.29 -0.87,6.58 -1.08,9.88 -0.06,1.03 -0.06,2.07 -0.09,3.1 -0.07,2.31 -0.07,4.62 0.02,6.94 0.05,1.14 0.11,2.28 0.2,3.43 0.18,2.34 0.45,4.67 0.79,7.01 0.14,0.99 0.25,1.98 0.43,2.97 0.57,3.3 1.27,6.6 2.16,9.88 0.02,0.08 0.05,0.15 0.07,0.23 0.88,3.21 1.94,6.41 3.11,9.6 0.36,0.97 0.77,1.94 1.15,2.91 0.93,2.34 1.92,4.67 3,6.99 0.49,1.06 1,2.11 1.52,3.17 1.18,2.39 2.45,4.76 3.79,7.12 0.49,0.86 0.94,1.72 1.45,2.57 1.91,3.23 3.94,6.45 6.15,9.64 0.02,0.03 0.05,0.07 0.08,0.11 2.15,3.11 4.47,6.19 6.89,9.25 0.67,0.85 1.38,1.69 2.08,2.54 1.88,2.3 3.82,4.58 5.85,6.85 0.81,0.9 1.62,1.81 2.46,2.71 2.18,2.36 4.46,4.7 6.8,7.03 0.67,0.66 1.32,1.34 2,2 6.19,6 12.9,11.84 20.07,17.51 0.88,0.7 1.79,1.38 2.69,2.07 2.77,2.15 5.62,4.27 8.53,6.36 1.04,0.75 2.07,1.49 3.13,2.23 3.13,2.19 6.34,4.35 9.62,6.48 0.76,0.49 1.5,1 2.28,1.49 4.19,2.68 8.48,5.31 12.9,7.87 0,0.01 0.01,0.01 0.01,0.01 0,0 0.01,0 0.02,0.01 4.98,2.89 10.13,5.68 15.38,8.41 1.04,0.55 2.08,1.09 3.13,1.62 10.65,5.44 21.83,10.54 33.47,15.28 1.24,0.5 2.47,1 3.71,1.5 5.88,2.33 11.83,4.59 17.92,6.73 0.03,0 0.05,0.01 0.07,0.02 5.97,2.09 12.07,4.05 18.24,5.94 1.46,0.45 2.92,0.89 4.39,1.33 6.27,1.86 12.6,3.66 19.06,5.31 0.07,0.01 0.14,0.03 0.21,0.05 6.33,1.61 12.78,3.08 19.28,4.48 1.64,0.35 3.3,0.7 4.96,1.04 6.62,1.36 13.3,2.65 20.08,3.78 7.33,1.21 14.6,2.21 21.84,3.11 7.83,0.97 15.59,1.72 23.3,2.33 2.53,0.2 5.02,0.32 7.54,0.48 5.15,0.33 10.28,0.62 15.36,0.79 2.96,0.1 5.89,0.15 8.83,0.2 4.56,0.07 9.09,0.08 13.58,0.03 3.09,-0.03 6.15,-0.08 9.2,-0.17 4.3,-0.14 8.54,-0.36 12.76,-0.61 3.05,-0.18 6.11,-0.32 9.12,-0.56 4.28,-0.34 8.47,-0.81 12.66,-1.26 5.81,-0.63 11.52,-1.39 17.16,-2.24 3.18,-0.48 6.4,-0.92 9.53,-1.47 3.98,-0.7 7.85,-1.53 11.73,-2.35 2.34,-0.49 4.7,-0.96 7,-1.49 4.07,-0.93 8.04,-1.96 11.98,-3.02 1.88,-0.5 3.74,-1.01 5.59,-1.54 4.18,-1.2 8.29,-2.46 12.32,-3.8 1.2,-0.4 2.37,-0.83 3.56,-1.24 25.07,-8.69 46.84,-20.04 64.36,-33.71 0.15,-0.12 0.3,-0.23 0.45,-0.35 3.53,-2.78 6.9,-5.64 10.07,-8.61 0.01,-0.01 0.02,-0.01 0.03,-0.02 0.03,-0.03 0.06,-0.06 0.08,-0.09 4.05,-3.78 7.77,-7.72 11.2,-11.79 1.21,-1.45 2.46,-2.88 3.59,-4.36 1.11,-1.46 2.2,-2.92 3.23,-4.41 1.47,-2.13 2.75,-4.33 4.1,-6.51 v 0 c 0.81,-1.32 1.75,-2.59 2.48,-3.94 l 62.95,-0.53 c 143.38,-1.22 261.7,-20.48 351.67,-57.25 90.48,-36.98 145.87,-90.73 155.99,-151.35 20.26,-121.56 -39.43,-226.21 -159.68,-279.94 z m -770.15,1881.26 c 2.1,1.36 4.3,2.55 6.54,3.58 6.68,3.06 13.83,4.6 21.31,4.6 6.14,0 12.17,-1.06 17.84,-3.09 5.67,-2.02 10.98,-5.01 15.64,-8.87 l 50.5,-41.83 63.14,17.73 c 13.47,3.79 27.85,9.11 42.76,15.81 l 2.6,1.17 2.53,1.29 c 19.44,9.84 44.29,27.85 72.89,51.82 154.31,129.37 417.23,432.19 521.04,557.08 9.97,11.98 24.63,18.85 40.24,18.85 8.56,0 21.31,-2.09 33.3,-12.07 22.14,-18.39 25.18,-51.38 6.75,-73.52 -71.22,-85.73 -140.29,-165.73 -205.38,-238.22 -89.47,-99.66 -171.49,-185.13 -241.42,-251.78 -6.36,-6.06 -12.61,-11.97 -18.75,-17.71 -12.32,-11.49 -24.2,-22.35 -35.65,-32.53 -11.45,-10.2 -22.47,-19.73 -33.01,-28.56 -26.37,-22.08 -49.78,-39.85 -69.86,-52.86 -12.06,-7.81 -22.9,-13.91 -32.44,-18.19 -5.92,-2.67 -11.81,-5.17 -17.62,-7.51 -17.56,-7.01 -34.71,-12.54 -51.4,-16.58 -22.29,-5.37 -43.74,-8.07 -64.26,-8.07 -12.79,0 -25.14,1.05 -36.99,3.12 -11.88,2.08 -23.26,5.19 -34.06,9.31 -5.85,2.25 -11.34,4.7 -16.44,7.27 -5.05,2.59 -9.78,5.29 -14.12,8.06 -26.04,16.57 -38.9,35.13 -41.75,39.66 -1.92,3.03 -3.51,6.18 -4.73,9.42 -2.46,6.47 -3.58,13.25 -3.4,19.95 0.51,16.75 9,33.01 24.2,42.67 z m 1216.57,1013.81 c 0.25,6.42 0.18,16.02 1.41,27.97 1.88,24.05 6.43,58.25 17.12,98.51 10.91,40.15 27.38,86.69 56.71,133.37 14.73,23.21 32.94,46.62 57.21,67.04 8.96,7.68 18.96,14.9 29.84,21.26 7.26,4.24 14.91,8.09 22.9,11.44 11.99,5.02 24.7,8.91 38.07,11.26 8.81,1.27 17.84,1.87 26.73,2.18 8.81,-0.55 17.88,-0.51 26.37,-2.02 8.41,-1.74 17.3,-2.74 25.1,-5.65 l 4.04,-1.38 7.77,-2.66 3.83,-1.35 2.06,-0.73 0.72,-0.26 0.36,-0.13 4.16,-1.8 0.57,-0.3 0.51,-0.27 1.01,-0.55 1.16,-0.62 c 1.66,-0.13 22.82,-13.44 28.21,-22.06 l 5.74,-7.25 4.3,-7.54 c 2.49,-4.19 4.15,-8.25 5.6,-12.29 0.36,-0.92 0.75,-1.86 1.04,-2.78 0.36,-1.06 0.51,-2.03 0.83,-3.08 5.71,-18.59 6.25,-35.03 5.35,-49.81 -1.26,-15.41 -3.86,-29.48 -7.26,-42.58 -3.4,-13.09 -7.59,-25.21 -11.92,-36.74 -8.85,-22.99 -18.89,-43.38 -28.9,-61.64 -20.15,-36.43 -40.41,-64.2 -55.44,-83.02 -14.95,-18.88 -24.85,-28.66 -24.85,-28.66 0,0 3.14,13.55 9.03,36.52 5.71,23.05 14.34,55.57 23.37,93.8 4.48,19.08 8.96,39.66 12.46,60.88 3.61,21.09 5.96,43.38 4.88,62.69 -0.26,2.76 -0.62,5.39 -1.02,7.91 -0.97,6 -2.31,11.15 -4,14.16 -0.47,1.1 -0.98,1.93 -1.52,2.27 0,0 -0.15,0.04 -0.22,0.07 -0.25,0.13 -0.4,0.39 -0.61,0.58 l -3.51,1.61 -2.34,0.64 -8.74,2.37 c -4.34,1.39 -8.49,1.52 -12.68,2.39 -0.4,0.08 -0.76,0.1 -0.76,0.1 -4.95,0.91 -9.36,0.4 -13.84,0.88 -4.4,-0.38 -8.74,-0.78 -13.11,-1.33 -12.96,-2.08 -25.97,-7.35 -38.83,-15.07 -4.26,-2.56 -8.56,-5.4 -12.78,-8.48 -4.23,-3.12 -8.38,-6.47 -12.46,-10 -8.2,-7.08 -16.11,-14.91 -23.74,-23.2 -3.79,-4.14 -7.51,-8.4 -11.16,-12.72 -7.26,-8.73 -14.19,-17.68 -20.84,-26.73 -19.9,-27.14 -37.13,-55.11 -52.16,-80.31 -14.91,-25.38 -27.74,-48.25 -38.07,-66.85 -3.43,-6.19 -6.61,-11.91 -9.46,-17.09 -11.56,-20.94 -18.13,-32.91 -18.13,-32.91 0,0 -0.22,3.48 -0.11,9.96 z M 5405.44,2146.64 c -23.22,170.31 -95.9,246.71 -159.98,314.12 -59.67,62.78 -116.01,122.07 -97.88,230.93 16.76,100.63 96.84,162.55 227.63,178.66 -79.43,537.03 -195.85,1214.55 -345.53,1792.55 -74.73,288.66 -192.95,489.16 -351.49,622.46 29.15,14.91 57.33,29.57 84.49,43.97 37.39,19.82 73.11,39.21 106.59,57.98 350.44,196.51 407.55,290.9 419.97,344.81 10.51,45.54 -4.33,76.52 -18.6,94.48 -32.87,41.31 -96.69,60.55 -200.79,60.55 -115.05,0 -270.62,-24.21 -433.23,-58.43 -1.44,-29.62 -4.05,-60.42 -7.98,-92.6 166.95,36.23 326.92,62.36 441.21,62.36 104.53,0 127.79,-22.56 131.4,-27.08 1.38,-1.77 4.7,-5.92 1.59,-19.34 -4.73,-20.49 -45.87,-101.77 -376.95,-287.41 -95.21,-53.38 -207.4,-111.45 -333.14,-172.68 l -1.48,-2.07 -2.38,0.19 c -146.22,-71.11 -310.74,-146.46 -489.22,-223.85 -105.83,-45.89 -211.33,-90.22 -314.35,-132.38 49.38,56.88 92.61,108.21 125.27,147.48 62.59,75.32 52.26,187.13 -23.05,249.71 -5.09,4.25 -10.4,8.09 -15.82,11.66 145.67,37.92 324.69,47.04 462.05,47.04 124.44,0 214.59,-7.4 214.59,-7.4 39.12,54.75 265.92,828.95 -125.12,828.95 -335.85,0 -556.32,-657.83 -611.8,-843.32 -62.46,13.35 -130,-7.44 -173.64,-59.96 -205.63,-247.39 -477.72,-538.53 -554.19,-577.24 -10.69,-4.82 -19.07,-7.71 -25.21,-9.45 -57.69,47.76 -141.77,55.34 -208.34,12.99 -57.87,-36.82 -87.02,-101.58 -81.35,-165.47 -22.82,-5.43 -41.43,-9.03 -54.9,-10.44 -29.37,-3.09 -73.9,-6.82 -130.03,-10.76 -3.29,3.15 -6.54,6.31 -10.12,9.27 -55.48,46.08 -130.79,52.62 -191.65,22.69 -33.12,-0.51 -154.67,8.19 -457.36,130.43 -297.63,120.19 -444.35,153.61 -519.66,160.64 61.08,27.05 101.36,42.47 101.36,42.47 0,0 -208.2,612.5 -489.182,612.43 -36.516,-0.01 -74.336,-10.36 -112.984,-33.74 -336.282,-203.33 132.921,-821.12 132.921,-821.12 54.434,37.67 113.275,72.49 170.345,103.36 -16.83,-33.3 -23.55,-72.07 -16.33,-111.62 13.55,-74.62 71.7,-129.65 142.28,-142.59 -630.513,20.78 -741.908,105.4 -761.306,133.81 -4.621,6.78 -6.426,12.94 -1.985,24.39 23.586,60.4 120.133,124.16 243.739,182.47 -13.328,25.62 -26.407,52.49 -38.723,80.23 C 538.738,4875.7 421.418,4797.17 387.5,4710.3 c -14.629,-37.47 -10.691,-74.35 11.379,-106.64 21.168,-30.98 73,-106.72 461.652,-148.41 29.223,-3.14 60.395,-6.08 93.551,-8.8 -163.551,-338.58 -92.469,-714.12 -32.578,-1024.34 64.801,-335.87 272.776,-884.81 441.466,-1298.76 78.66,-193.1 148.74,-356.84 191.79,-455.86 501.46,-44.17 1145.31,-70.74 1847.56,-70.74 830.33,0 1578.96,37.14 2107.15,96.63 -33.81,127.66 -85.82,350.87 -100.74,433.38 -1.45,7.97 -2.6,14.76 -3.29,19.88"
         style="fill:#ffffff;fill-opacity:1;fill-rule:nonzero;stroke:none"
         id="path4059"
         inkscape:connector-curvature="0" /><path
         d="m 1148.27,1524.44 c 128.26,0 220.58,66.02 286.94,154.2 3.82,5.11 7.62,10.24 11.3,15.49 -45.15,104.66 -107.46,251.67 -175.43,419.08 -47.61,117.16 -97.96,244.24 -147.23,374.15 -32.44,-27.58 -69.86,-69.2 -110.38,-131.99 -44.361,-68.79 -85.286,-177.74 -108.294,-294.56 -20.731,-105.13 -26.836,-216.56 -7.946,-310.87 7.801,-38.99 19.793,-75.09 36.95,-106.53 43.597,-80.07 113.67,-118.97 214.09,-118.97"
         style="fill:#ffffff;fill-opacity:1;fill-rule:nonzero;stroke:none"
         id="path4061"
         inkscape:connector-curvature="0" /><path
         d="m 505.324,1904.67 c 0,-48.49 105.762,-94.33 293.586,-135.13 -13.363,97.28 -5.129,195.4 7.442,271.84 -192.485,-41.19 -301.028,-87.6 -301.028,-136.71"
         style="fill:#ffffff;fill-opacity:1;fill-rule:nonzero;stroke:none"
         id="path4063"
         inkscape:connector-curvature="0" /><path
         d="m 6047.62,2030.28 c -2.85,-7.87 -5.88,-15.65 -9.13,-23.28 -23.12,-54.03 -56.24,-101.75 -98.51,-141.78 -84.84,-80.37 -159.21,-128.51 -225.67,-146.07 367.05,51.59 584.96,115.85 584.96,185.52 0,44.75 -90.12,87.25 -251.65,125.61"
         style="fill:#ffffff;fill-opacity:1;fill-rule:nonzero;stroke:none"
         id="path4065"
         inkscape:connector-curvature="0" /><path
         d="m 5948.33,2051.68 c 50.89,119.04 32.76,262.24 -10.4,373.92 -79.54,205.77 -248.66,351.85 -411.27,355.24 l -5.82,0.51 c 0,0 -31.53,4.7 -73.5,4.7 -88.6,0 -197.29,-18.9 -212.31,-108.93 -10.41,-62.47 16.9,-94.47 74.69,-155.26 66.07,-69.45 156.48,-164.57 183.57,-363.24 1.95,-14.29 4,-28.12 6.14,-41.52 31.96,-200.03 85.35,-301.38 158.96,-301.39 36.66,0 103.52,21.98 214.05,126.67 34.13,32.34 58.88,69.47 75.89,109.3"
         style="fill:#ffffff;fill-opacity:1;fill-rule:nonzero;stroke:none"
         id="path4067"
         inkscape:connector-curvature="0" /><path
         d="m 1256.48,5398.06 c -5.56,150.91 -8.67,300.63 -1.91,344.72 20.15,91 581.21,732.91 950.47,808.26 30.05,6.14 66.42,9.24 108.03,9.24 416.62,0 1215.49,-297.57 1312.4,-349.23 4.98,-12.04 12.21,-35.77 20.95,-68.25 -45.3,-47.55 -82.21,-119.31 -100.81,-204.01 -19,-86.4 -15.93,-166.51 4.95,-227.88 -420.52,-183.34 -1468.66,-579.63 -2255.65,-367.22 16.58,-25.11 33.02,-51.89 49.27,-80.45 59.1,-103.81 102.33,-206.35 125.85,-266.87 325.84,-50.97 1043.73,-62.13 2171.33,445.39 21.49,67.41 54.47,162.53 98.36,264.88 -20.63,-19.24 -41.32,-28.27 -58.37,-24.53 -45.66,10.04 -76.36,113.8 -49.16,237.64 25.79,117.2 91.53,195.94 136.75,195.94 2.6,0 5.09,-0.27 7.58,-0.82 44,-9.68 73.94,-106.51 51.69,-224.38 147.95,271.8 314.21,409.47 495.03,409.47 60.97,0 114.47,-14.35 159.33,-42.1 76.28,92.78 124.83,156.76 124.83,156.76 -57.36,-10.42 -177.24,-26.06 -177.24,-26.06 453.52,166.83 417.04,620.39 417.04,620.39 0,-78.2 -234.6,-265.88 -234.6,-265.88 10.44,67.77 -26.04,156.4 -26.04,156.4 10.4,-88.63 -271.12,-318.02 -271.12,-318.02 20.84,41.71 5.2,114.7 5.2,114.7 -15.64,-83.42 -140.76,-114.7 -140.76,-114.7 78.2,93.84 224.2,589.12 114.72,620.4 -109.48,31.28 -260.68,-323.23 -260.68,-323.23 -5.2,83.41 -52.16,83.41 -52.16,83.41 20.88,-260.67 -187.68,-469.21 -187.68,-469.21 -15.61,52.14 -99.04,78.21 -99.04,78.21 19.39,-42.03 8.74,-192.22 -2.17,-300.33 -1.12,1.36 -2.1,2.37 -2.96,3.23 -44.25,44.22 -936.46,375.03 -1376.84,375.03 -47.57,0 -89.86,-3.71 -125.77,-11.04 -231.78,-47.3 -508.21,-286.55 -652.33,-424.95 -171.72,-164.89 -356.33,-380.66 -367.96,-456.32 -6.14,-40 -5.74,-141.43 -2.74,-254.07 31.21,-29.09 61.94,-64.16 92.21,-104.52"
         style="fill:#ffffff;fill-opacity:1;fill-rule:nonzero;stroke:none"
         id="path4069"
         inkscape:connector-curvature="0" /><path
         d="M 1838.2,1058.44 C 1738.69,1035.69 1445.83,876.469 1192.77,828.129 939.707,779.789 720.746,754.199 643.992,725.77 567.234,697.34 507.527,640.461 658.223,583.602 c 150.695,-56.86 881.407,-76.77 946.817,0 65.38,76.769 -45.11,110.039 -204.73,108.046 -113.7,-1.418 -99.76,38.204 -99.51,42.653 0,0 7.12,49.75 181.98,73.929 174.57,24.122 946.82,96.661 932.59,179.122 -14.2,82.458 -477.66,93.838 -577.17,71.088"
         style="fill:#ffffff;fill-opacity:1;fill-rule:nonzero;stroke:none"
         id="path4071"
         inkscape:connector-curvature="0" /><path
         d="m 1327.68,493.031 c -81.71,-17.781 -143.73,-51.472 -138.56,-75.261 5.16,-23.782 75.6,-28.649 157.3,-10.872 81.71,17.782 143.76,51.473 138.56,75.262 -5.17,23.781 -75.6,28.649 -157.3,10.871"
         style="fill:#ffffff;fill-opacity:1;fill-rule:nonzero;stroke:none"
         id="path4073"
         inkscape:connector-curvature="0" /><path
         d="M 983.234,512.379 C 895.57,505.41 826.035,480.711 827.879,457.242 c 1.879,-23.492 74.48,-36.871 162.109,-29.89 87.662,6.98 157.232,31.668 155.352,55.148 -1.88,23.492 -74.44,36.859 -162.106,29.879"
         style="fill:#ffffff;fill-opacity:1;fill-rule:nonzero;stroke:none"
         id="path4075"
         inkscape:connector-curvature="0" /><path
         d="m 702.035,537.801 c -58.332,-7.949 -103.629,-29.211 -101.137,-47.492 2.497,-18.278 51.797,-26.661 110.168,-18.719 58.336,7.949 103.629,29.219 101.137,47.5 -2.492,18.281 -51.797,26.66 -110.168,18.711"
         style="fill:#ffffff;fill-opacity:1;fill-rule:nonzero;stroke:none"
         id="path4077"
         inkscape:connector-curvature="0" /><path
         d="m 495.824,563.422 c -56.347,-8.184 -100.269,-26.774 -98.136,-41.543 2.167,-14.758 49.554,-20.098 105.906,-11.93 56.308,8.18 100.265,26.793 98.097,41.539 -2.128,14.774 -49.554,20.114 -105.867,11.934"
         style="fill:#ffffff;fill-opacity:1;fill-rule:nonzero;stroke:none"
         id="path4079"
         inkscape:connector-curvature="0" /><path
         d="m 456.672,568.238 c 56.308,8.184 100.269,26.793 98.101,41.543 -2.128,14.758 -49.519,20.098 -105.867,11.93 -56.347,-8.18 -100.269,-26.781 -98.105,-41.539 2.133,-14.762 49.523,-20.113 105.871,-11.934"
         style="fill:#ffffff;fill-opacity:1;fill-rule:nonzero;stroke:none"
         id="path4081"
         inkscape:connector-curvature="0" /><path
         d="m 443.887,637.652 c 48.976,7.098 87.156,23.278 85.312,36.11 -1.875,12.828 -43.09,17.468 -92.07,10.359 -48.941,-7.101 -87.121,-23.269 -85.277,-36.109 1.839,-12.84 43.089,-17.473 92.035,-10.36"
         style="fill:#ffffff;fill-opacity:1;fill-rule:nonzero;stroke:none"
         id="path4083"
         inkscape:connector-curvature="0" /><path
         d="m 3356.52,978.82 c -173.45,-8.519 -565.83,11.379 -619.83,-79.609 -54.03,-90.981 159.22,-125.109 494.71,-96.672 335.52,28.43 810.36,65.391 830.26,167.762 19.9,102.349 -88.14,82.449 -99.51,147.849 -11.38,65.39 119.41,65.39 145.02,162.07 25.57,96.66 -176.3,85.3 -355.42,85.3 -179.13,0 -477.7,-17.06 -506.12,-110.89 -28.43,-93.83 136.5,-93.83 253.06,-116.58 116.59,-22.75 82.46,-65.4 82.46,-65.4 -5.67,-59.7 -51.18,-85.298 -224.63,-93.83"
         style="fill:#ffffff;fill-opacity:1;fill-rule:nonzero;stroke:none"
         id="path4085"
         inkscape:connector-curvature="0" /><path
         d="m 2892.7,778.371 c -83.05,0 -150.34,-21.961 -150.34,-49.051 0,-27.09 67.29,-49.039 150.34,-49.039 83.04,0 150.37,21.949 150.37,49.039 0,27.09 -67.33,49.051 -150.37,49.051"
         style="fill:#ffffff;fill-opacity:1;fill-rule:nonzero;stroke:none"
         id="path4087"
         inkscape:connector-curvature="0" /><path
         d="m 3279.76,784.77 c -55.37,0 -100.23,-20.051 -100.23,-44.79 0,-24.73 44.86,-44.781 100.23,-44.781 55.34,0 100.24,20.051 100.24,44.781 0,24.739 -44.9,44.79 -100.24,44.79"
         style="fill:#ffffff;fill-opacity:1;fill-rule:nonzero;stroke:none"
         id="path4089"
         inkscape:connector-curvature="0" /><path
         d="m 3592.17,808.23 c -60.65,0 -109.81,-16.242 -109.81,-36.261 0,-20.02 49.16,-36.25 109.81,-36.25 60.64,0 109.8,16.23 109.8,36.25 0,20.019 -49.16,36.261 -109.8,36.261"
         style="fill:#ffffff;fill-opacity:1;fill-rule:nonzero;stroke:none"
         id="path4091"
         inkscape:connector-curvature="0" /><path
         d="m 3833.12,850.871 c -44.17,0 -79.97,-17.18 -79.97,-38.379 0,-21.203 35.8,-38.39 79.97,-38.39 44.18,0 79.97,17.187 79.97,38.39 0,21.199 -35.79,38.379 -79.97,38.379"
         style="fill:#ffffff;fill-opacity:1;fill-rule:nonzero;stroke:none"
         id="path4093"
         inkscape:connector-curvature="0" /><path
         d="m 4041.07,893.52 c -44.79,0 -81.06,-16.7 -81.06,-37.321 0,-20.597 36.27,-37.308 81.06,-37.308 44.72,0 81.02,16.711 81.02,37.308 0,20.621 -36.3,37.321 -81.02,37.321"
         style="fill:#ffffff;fill-opacity:1;fill-rule:nonzero;stroke:none"
         id="path4095"
         inkscape:connector-curvature="0" /><path
         d="m 1812.99,3208.36 c -50.39,0 -96.01,20.42 -129.02,53.44 -6.51,6.49 -12.32,13.59 -17.81,20.99 -3.58,4.88 -6.94,9.92 -10.04,15.15 -6.36,10.73 -11.67,22.13 -15.75,34.13 -1.01,2.97 -1.95,5.96 -2.82,8.99 -4.48,15.84 -7.04,32.49 -7.04,49.77 0,100.77 81.7,182.47 182.48,182.47 81.88,0 151.16,-53.94 174.28,-128.21 5.31,-17.14 8.2,-35.37 8.2,-54.26 0,-100.78 -81.71,-182.47 -182.48,-182.47 z m 52.12,964.48 c -149.79,0 -286.33,-56.93 -389.09,-150.33 -6.86,-6.23 -13.54,-12.62 -20.08,-19.17 -104.75,-104.72 -169.51,-249.39 -169.51,-409.19 0,-59.93 9.1,-117.73 26,-172.09 5.64,-18.12 12.18,-35.86 19.47,-53.17 7.33,-17.3 15.46,-34.19 24.38,-50.58 13.37,-24.6 28.43,-48.13 45.12,-70.4 105.54,-141.12 273.93,-232.46 463.71,-232.46 319.59,0 578.72,259.1 578.72,578.7 0,319.6 -259.13,578.69 -578.72,578.69"
         style="fill:#ffffff;fill-opacity:1;fill-rule:nonzero;stroke:none"
         id="path4097"
         inkscape:connector-curvature="0" /><path
         d="m 3651.37,3650.2 c -21.82,-9.24 -45.84,-14.34 -71.02,-14.34 -18.89,0 -37.13,2.87 -54.28,8.2 -21.39,6.66 -41.04,17.28 -58.23,30.82 -5.78,4.51 -11.34,9.25 -16.54,14.42 -4.12,4.12 -8.02,8.45 -11.78,12.96 -5.99,7.31 -11.34,15.2 -16.18,23.4 -4.12,6.97 -7.95,14.11 -11.13,21.64 -4.04,9.51 -7.11,19.5 -9.46,29.76 -3.1,13.27 -4.87,27.05 -4.87,41.27 0,6.29 0.32,12.51 0.93,18.65 0.62,6.14 1.56,12.18 2.79,18.12 13.36,65.33 61.62,117.95 124.47,137.49 17.15,5.34 35.39,8.21 54.28,8.21 25.18,0 49.2,-5.11 71.02,-14.34 10.91,-4.62 21.27,-10.27 30.99,-16.82 4.87,-3.28 9.53,-6.8 14.05,-10.51 40.56,-33.47 66.39,-84.12 66.39,-140.8 0,-75.58 -45.95,-140.44 -111.43,-168.13 z m 206.14,904.6 c -35.44,12.98 -72.53,22.6 -110.82,28.45 -28.75,4.39 -58.19,6.66 -88.14,6.66 -129.85,0 -249.69,-42.76 -346.24,-114.96 -44.58,-33.32 -84.16,-72.93 -117.5,-117.49 -16.65,-22.28 -31.75,-45.8 -45.12,-70.4 -8.88,-16.4 -17.05,-33.28 -24.34,-50.59 -7.34,-17.3 -13.84,-35.04 -19.47,-53.16 -16.91,-54.37 -26.04,-112.16 -26.04,-172.08 0,-69.92 12.42,-136.93 35.14,-198.98 3.21,-8.87 6.68,-17.63 10.37,-26.28 14.63,-34.62 32.54,-67.51 53.35,-98.3 5.16,-7.69 10.58,-15.26 16.11,-22.68 11.12,-14.87 22.93,-29.17 35.36,-42.87 18.71,-20.55 38.83,-39.76 60.28,-57.45 100.02,-82.55 228.25,-132.14 368.1,-132.14 319.6,0 578.69,259.09 578.69,578.7 0,249.69 -158.14,462.44 -379.73,543.57"
         style="fill:#ffffff;fill-opacity:1;fill-rule:nonzero;stroke:none"
         id="path4099"
         inkscape:connector-curvature="0" /><path
         d="m 2943.65,2527.13 c -5.13,13.7 -9.49,27.14 -13.2,39.58 -12.72,42.71 -21.67,87.34 -27.42,121.06 -15.46,-5.32 -30.54,-11.17 -45.25,-17.46 -51.31,-24.41 -97.92,-53.24 -139.56,-79.32 -0.81,-0.51 -1.67,-1.04 -2.48,-1.55 11.22,-52 45.85,-164.34 135.69,-164.34 11.33,0 23.52,1.78 36.67,5.7 41.67,12.41 55.32,51.27 55.55,96.33"
         style="fill:#ffffff;fill-opacity:1;fill-rule:nonzero;stroke:none"
         id="path4101"
         inkscape:connector-curvature="0" /><path
         d="m 3067.15,2715.54 c -26.89,0 -46.49,-0.79 -58.26,-2.34 -7.84,-1.03 -15.59,-2.26 -23.26,-3.64 5.12,-31.28 13.72,-76.27 26.32,-118.57 15.8,-53.03 37.82,-101.55 66.98,-112.48 8.42,-3.16 23.4,-6.23 40.64,-6.23 45.52,0 106.89,21.35 105.64,118.71 -0.06,5.01 -0.24,10.16 -0.65,15.57 -3.54,47.17 -6.69,81.24 -9.38,105.99 -15.88,0.36 -31.51,0.74 -46.32,1.12 -37.24,0.96 -72.42,1.87 -101.71,1.87"
         style="fill:#ffffff;fill-opacity:1;fill-rule:nonzero;stroke:none"
         id="path4103"
         inkscape:connector-curvature="0" /><path
         d="m 3238.69,3150.99 c 0,0 -16.67,-195 -291.1,-235.46 -51.92,-7.66 -96.52,-10.99 -134.97,-10.99 -146.03,0 -203.48,48.05 -237.26,89.78 0,0 -263.02,-88.83 -283.11,-239.49 -15.02,-112.64 93.5,-170.54 189.09,-170.54 32.26,0 63.03,6.59 87.1,19.89 95.42,52.73 238.54,168.23 429.36,193.34 17.24,2.27 41.08,3.06 69.35,3.06 65.32,0 154.36,-4.23 240.66,-4.23 98.11,0 192.69,5.46 244.9,28.78 118.01,52.73 118.01,143.13 110.47,188.32 -8.35,50.09 -128.22,135.03 -424.49,137.54"
         style="fill:#ffffff;fill-opacity:1;fill-rule:nonzero;stroke:none"
         id="path4105"
         inkscape:connector-curvature="0" /></g></g></svg>